<?xml version="1.0" encoding="UTF-8"?>
<svg width="200" height="200" viewBox="0 0 200 200" fill="none" xmlns="http://www.w3.org/2000/svg">
    <path d="M60 100C60 140 80 160 100 160C120 160 140 140 140 100C140 60 120 40 100 40C80 40 60 60 60 100Z" fill="#FFEB3B"/>
    <path d="M100 40C80 40 70 50 70 60C85 55 95 60 100 70C105 60 115 55 130 60C130 50 120 40 100 40Z" fill="#4CAF50"/>
    <path d="M80 80L120 120" stroke="#FDD835" stroke-width="2"/>
    <path d="M120 80L80 120" stroke="#FDD835" stroke-width="2"/>
</svg>
