<?xml version="1.0" encoding="UTF-8"?>
<svg width="200" height="200" viewBox="0 0 200 200" fill="none" xmlns="http://www.w3.org/2000/svg">
    <path d="M60 100C60 140 80 180 100 180C120 180 140 140 140 100C140 60 120 40 100 40C80 40 60 60 60 100Z" fill="#FFC107"/>
    <path d="M100 40C80 40 70 50 70 60C85 55 95 60 100 70C105 60 115 55 130 60C130 50 120 40 100 40Z" fill="#4CAF50"/>
    <path d="M80 100C80 120 90 140 100 140C110 140 120 120 120 100C120 80 110 60 100 60C90 60 80 80 80 100Z" fill="#FFD54F"/>
</svg>
