<?xml version="1.0" encoding="UTF-8"?>
<svg width="200" height="200" viewBox="0 0 200 200" fill="none" xmlns="http://www.w3.org/2000/svg">
    <circle cx="100" cy="110" r="60" fill="#FFF176"/>
    <path d="M100 40C80 40 70 50 70 60C85 55 95 60 100 70C105 60 115 55 130 60C130 50 120 40 100 40Z" fill="#4CAF50"/>
    <circle cx="100" cy="110" r="40" fill="#FFD54F"/>
    <path d="M70 110C70 130 80 150 100 150C120 150 130 130 130 110C130 90 120 70 100 70C80 70 70 90 70 110Z" stroke="#FBC02D" stroke-width="2"/>
</svg>
