<?xml version="1.0" encoding="UTF-8"?>
<svg width="200" height="200" viewBox="0 0 200 200" fill="none" xmlns="http://www.w3.org/2000/svg">
    <path d="M40 100C40 144.183 76.8629 180 120 180C163.137 180 200 144.183 200 100C200 55.8172 163.137 20 120 20C76.8629 20 40 55.8172 40 100Z" fill="#4CAF50"/>
    <path d="M50 100C50 138.66 81.3401 170 120 170C158.66 170 190 138.66 190 100C190 61.3401 158.66 30 120 30C81.3401 30 50 61.3401 50 100Z" fill="#FF5252"/>
    <circle cx="90" cy="80" r="5" fill="#000"/>
    <circle cx="120" cy="100" r="5" fill="#000"/>
    <circle cx="150" cy="80" r="5" fill="#000"/>
</svg>
